<svg xmlns="http://www.w3.org/2000/svg" viewBox="0 0 100 100">
  <defs>
    <linearGradient id="blueGradient" x1="0%" y1="0%" x2="100%" y2="100%">
      <stop offset="0%" style="stop-color:#0ea5e9;stop-opacity:1" />
      <stop offset="100%" style="stop-color:#0284c7;stop-opacity:1" />
    </linearGradient>
  </defs>
  <rect width="100" height="100" rx="20" fill="url(#blueGradient)"/>
  <path d="M30 35 Q35 25, 45 30 Q50 28, 55 30 Q65 25, 70 35 Q70 40, 65 45 Q60 50, 55 48 Q50 52, 45 48 Q40 50, 35 45 Q30 40, 30 35 Z" fill="white" opacity="0.9"/>
  <circle cx="42" cy="38" r="3" fill="#0284c7"/>
  <circle cx="58" cy="38" r="3" fill="#0284c7"/>
  <path d="M50 45 Q48 50, 50 55" stroke="white" stroke-width="2" fill="none" stroke-linecap="round"/>
  <path d="M25 50 Q20 45, 20 40 Q20 35, 25 30 Q30 25, 35 30" stroke="white" stroke-width="2.5" fill="none" stroke-linecap="round"/>
  <path d="M75 50 Q80 45, 80 40 Q80 35, 75 30 Q70 25, 65 30" stroke="white" stroke-width="2.5" fill="none" stroke-linecap="round"/>
</svg>

